<?xml version="1.0" standalone="no"?><!DOCTYPE svg PUBLIC "-//W3C//DTD SVG 1.1//EN" "http://www.w3.org/Graphics/SVG/1.1/DTD/svg11.dtd"><svg t="1583329136397" class="icon" viewBox="0 0 1024 1024" version="1.1" xmlns="http://www.w3.org/2000/svg" p-id="3669" xmlns:xlink="http://www.w3.org/1999/xlink" width="200" height="200"><defs><style type="text/css"></style></defs><path d="M775.837989 775.785139C631.504989 920.092873 233.39857 1084.209285 89.06557 939.901551S108.811082 397.462132 253.181982 253.141764s331.416361-97.464254 475.749361 46.88138S920.120457 631.464772 775.837989 775.785139" fill="#E34361" p-id="3670"></path><path d="M799.297629 385.309103c34.892582 101.784769 18.949628 207.435262-70.366286 296.725909C584.598343 826.330113 186.529824 990.433892 42.18419 846.100892c-0.732719-0.732719-1.263309-1.541236-2.04656-2.299222 8.173606 37.899256 23.775467 70.909508 48.915307 96.011449C233.39857 1084.196652 631.479723 920.118139 775.837989 775.772506c117.1845-117.209766 108.265542-262.654478 23.45964-390.463403" fill="#BC395B" p-id="3671"></path><path d="M451.167696 194.991673c-60.449313 0-121.378684 22.739554-177.393785 78.767287-70.99794 71.023206-144.53513 204.100127-182.990241 331.201599-43.584144 144.105605-36.635948 258.687689 18.949628 314.285897 129.312262 129.286996 512.221079-30.837361 645.550661-164.091146 142.880195-142.905462 69.481969-318.176888-46.906645-434.502337-70.745278-70.745278-163.295261-125.673933-257.121187-125.673934M253.207248 1024c-74.23201 0-139.721924-18.406405-184.822039-63.493887C-3.939204 888.105901-15.801672 755.888029 34.945432 588.070123 75.96506 452.592916 155.338736 309.712721 232.526887 232.448771 375.369183 89.694906 578.269167 108.139211 749.561172 279.405949s189.673144 374.204621 46.88138 517.009018C689.52875 903.265603 442.918291 1024 253.207248 1024" fill="#454849" p-id="3672"></path><path d="M395.266293 586.945779a33.048151 33.048151 0 0 1 46.742416 46.742416c-12.89838 12.89838-60.525112 39.617356-73.423492 26.693709s13.795329-60.525112 26.693709-73.423492M356.065829 365.27303a33.048151 33.048151 0 0 1 46.742416 46.742416c-12.89838 12.89838-60.525112 39.617356-73.423492 26.693709s13.795329-60.525112 26.693709-73.423492M226.475639 583.395882a33.048151 33.048151 0 0 1 46.742416 46.742416c-12.89838 12.885747-60.537745 39.604723-73.448758 26.681076s13.820595-60.537745 26.706342-73.423492M637.215144 693.303725a33.048151 33.048151 0 0 0-46.742416-46.742416c-12.89838 12.89838-39.617356 60.525112-26.693709 73.423492s60.550378-13.795329 73.436125-26.681076M419.092292 822.893914a33.048151 33.048151 0 0 0-46.742416-46.742416c-12.89838 12.89838-39.617356 60.525112-26.693709 73.423492s60.525112-13.795329 73.423492-26.693709" fill="#454849" p-id="3673"></path><path d="M732.291744 465.023872s-120.153275 53.880109-206.790974 38.417213c0 0-5.053234-100.003504 82.67091-162.537277 0 0-133.721209-54.612828-177.216921-224.679423 0 0 90.958215-11.8751 187.866612 77.124986 0 0 69.229308-89.000086 41.537585-164.141678 0 0 145.596309 66.475295 114.31679 225.058416 0 0 135.388776 7.756714 216.189989 89.113784 0 0-26.668443 42.472433-108.429771 66.134202 0 0 60.120853 88.97482 69.305106 174.702937 0 0-95.329262 4.926903-219.461959-119.19316" fill="#3BB777" p-id="3674"></path><path d="M732.291744 465.023872s-120.153275 53.880109-206.790974 38.417213c0 0-5.053234-100.003504 82.67091-162.537277 0 0-133.721209-54.612828-177.216921-224.679423 0 0 90.958215-11.8751 187.866612 77.124986 0 0 69.229308-89.000086 41.537585-164.141678 0 0 145.596309 66.475295 114.31679 225.058416 0 0 135.388776 7.756714 216.189989 89.113784 0 0-26.668443 42.472433-108.429771 66.134202 0 0 60.120853 88.97482 69.305106 174.702937 0 0-95.329262 4.926903-219.461959-119.19316" fill="#229857" p-id="3675"></path><path d="M933.195701 510.111354a534.379511 534.379511 0 0 0-50.759737-100.609892c81.761328-23.62387 108.429772-66.096303 108.429771-66.096303-80.851746-81.35707-216.18999-89.113784-216.189989-89.113784 31.266886-158.595754-114.316789-225.096315-114.31679-225.096315C688.038046 104.336652 618.808738 193.286206 618.808738 193.286206c-74.244643-68.218661-144.636194-77.061821-173.654391-77.567144a163.53529 163.53529 0 0 1-5.634356 29.056096c50.203881 147.554437 168.639056 196.027586 168.639056 196.027586a193.05881 193.05881 0 0 0-70.328386 92.853177c90.250762 14.818609 213.587574-40.425873 213.587574-40.425873 75.38162 75.343721 140.404111 105.018839 181.764833 116.742342" fill="#3BB777" p-id="3676"></path><path d="M732.266478 435.841445a29.296125 29.296125 0 0 1 20.655095 8.552599c68.547121 68.547121 127.126738 94.634442 162.335146 104.57668-17.68632-64.352937-56.533057-122.42723-57.000481-123.159949A29.144528 29.144528 0 0 1 874.376055 381.519178c36.635948-10.624425 60.27245-25.000876 74.358341-36.256955-72.753939-55.244482-174.563974-61.750521-175.700952-61.902118a29.056096 29.056096 0 0 1-26.921104-34.740985c18.406405-93.484832-33.604007-149.070407-68.723985-175.08193-14.464883 52.768398-29.788815 124.915948-29.990944 125.850796A29.157161 29.157161 0 0 1 599.101125 214.762451c-49.799622-45.744402-96.845232-61.902118-127.745759-67.384877C518.123048 270.348027 614.854583 312.100374 619.326695 313.97007a29.220326 29.220326 0 0 1 5.77332 50.734471c-48.915307 34.829416-63.973944 83.378363-68.521855 112.43446H559.81223c72.981334 0 159.631667-38.240349 160.617047-38.707774a28.929765 28.929765 0 0 1 11.900366-2.526617m218.324982 177.507483c-16.915701 0-109.427785-5.343795-224.969985-114.15256-38.947802 15.159702-131.27039 46.060229-205.312903 32.846022a29.19506 29.19506 0 0 1-24.002862-27.249565c-0.202129-4.118386-3.676228-89.783338 61.45996-158.722084-47.083509-30.976325-123.336812-98.335936-155.134288-222.746561A29.056096 29.056096 0 0 1 427.164833 87.307253c3.789926-0.606388 82.557213-9.803274 173.338565 53.854843 8.84316-38.391946 21.703641-91.362473 32.290166-121.618713a29.308758 29.308758 0 0 1 16.107184-17.180996 28.980298 28.980298 0 0 1 23.573337 0.290561c53.298987 24.331322 144.194036 101.191014 135.060316 226.132228 47.841494 7.579851 140.227247 29.839348 204.024328 94.05332a29.169794 29.169794 0 0 1 4.029954 36.054826c-2.855077 4.58581-26.605278 39.907917-89.694906 66.273166 19.732879 35.536869 48.409983 95.796686 54.86549 155.955439a29.207693 29.207693 0 0 1-27.476961 32.2649h-2.627681" fill="#454849" p-id="3677"></path><path d="M728.779746 329.331902a29.169794 29.169794 0 0 1-22.903783-47.222473c11.609805-14.704911 115.719062-143.928742 199.602748-152.127614a29.169794 29.169794 0 1 1 5.684889 58.112193c-44.83482 4.408947-121.618713 82.203486-159.454804 130.196578a29.207693 29.207693 0 0 1-22.92905 11.117115" fill="#454849" p-id="3678"></path><path d="M196.345731 500.459677a22.208964 22.208964 0 0 1-7.32719-1.263309A21.90577 21.90577 0 0 1 175.766435 471.214084c1.263309-3.474098 30.837361-85.677585 83.2015-131.093527a21.880504 21.880504 0 1 1 28.677104 33.048151c-43.761008 37.899256-70.366285 111.954402-70.618947 112.687122a21.842605 21.842605 0 0 1-20.629829 14.553314M339.011164 284.888708a28.613938 28.613938 0 1 1-40.312176 3.322501 28.588672 28.588672 0 0 1 40.312176-3.322501" fill="#FEFEFE" p-id="3679"></path></svg>